STARTFONT 2.1
FONT -FontForge-Dogica Pixel-Bold-R-Normal--8-80-75-75-P-79-ISO10646-1
SIZE 8 75 75
FONTBOUNDINGBOX 9 8 0 -1
COMMENT "Generated by fontforge, http://fontforge.sourceforge.net"
COMMENT "OFL Copyright (c) 2020, Roberto Mocci"
STARTPROPERTIES 40
FOUNDRY "FontForge"
FAMILY_NAME "Dogica Pixel"
WEIGHT_NAME "Bold"
SLANT "R"
SETWIDTH_NAME "Normal"
ADD_STYLE_NAME ""
PIXEL_SIZE 8
POINT_SIZE 80
RESOLUTION_X 75
RESOLUTION_Y 75
SPACING "P"
AVERAGE_WIDTH 79
CHARSET_REGISTRY "ISO10646"
CHARSET_ENCODING "1"
FONTNAME_REGISTRY ""
CHARSET_COLLECTIONS "ISO10646-1"
FONT_NAME "Dogica_Pixel_Bold"
FACE_NAME "Dogica Pixel Bold"
COPYRIGHT "OFL Copyright (c) 2020, Roberto Mocci"
FONT_VERSION "001.000"
FONT_ASCENT 6
FONT_DESCENT 2
UNDERLINE_POSITION 0
UNDERLINE_THICKNESS 1
X_HEIGHT 5
CAP_HEIGHT 6
DEFAULT_CHAR 1
RAW_ASCENT 800
RAW_DESCENT 200
NORM_SPACE 4
RELATIVE_WEIGHT 70
RELATIVE_SETWIDTH 50
SUPERSCRIPT_X 0
SUPERSCRIPT_Y 3
SUPERSCRIPT_SIZE 5
SUBSCRIPT_X 0
SUBSCRIPT_Y 1
SUBSCRIPT_SIZE 5
AVG_LOWERCASE_WIDTH 83
AVG_UPPERCASE_WIDTH 84
ENDPROPERTIES
CHARS 262
STARTCHAR uni0000
ENCODING 0
SWIDTH 1000 0
DWIDTH 8 0
BBX 1 1 0 0
BITMAP
00
ENDCHAR
STARTCHAR uni0001
ENCODING 1
SWIDTH 1000 0
DWIDTH 8 0
BBX 1 1 0 0
BITMAP
00
ENDCHAR
STARTCHAR uni0002
ENCODING 2
SWIDTH 1000 0
DWIDTH 8 0
BBX 1 1 0 0
BITMAP
00
ENDCHAR
STARTCHAR uni0003
ENCODING 3
SWIDTH 1000 0
DWIDTH 8 0
BBX 1 1 0 0
BITMAP
00
ENDCHAR
STARTCHAR uni0004
ENCODING 4
SWIDTH 1000 0
DWIDTH 8 0
BBX 1 1 0 0
BITMAP
00
ENDCHAR
STARTCHAR uni0005
ENCODING 5
SWIDTH 1000 0
DWIDTH 8 0
BBX 1 1 0 0
BITMAP
00
ENDCHAR
STARTCHAR uni0006
ENCODING 6
SWIDTH 1000 0
DWIDTH 8 0
BBX 1 1 0 0
BITMAP
00
ENDCHAR
STARTCHAR uni0007
ENCODING 7
SWIDTH 1000 0
DWIDTH 8 0
BBX 1 1 0 0
BITMAP
00
ENDCHAR
STARTCHAR uni0008
ENCODING 8
SWIDTH 1000 0
DWIDTH 8 0
BBX 1 1 0 0
BITMAP
00
ENDCHAR
STARTCHAR uni0009
ENCODING 9
SWIDTH 1000 0
DWIDTH 8 0
BBX 1 1 0 0
BITMAP
00
ENDCHAR
STARTCHAR uni000A
ENCODING 10
SWIDTH 1000 0
DWIDTH 8 0
BBX 1 1 0 0
BITMAP
00
ENDCHAR
STARTCHAR uni000B
ENCODING 11
SWIDTH 1000 0
DWIDTH 8 0
BBX 1 1 0 0
BITMAP
00
ENDCHAR
STARTCHAR uni000C
ENCODING 12
SWIDTH 1000 0
DWIDTH 8 0
BBX 1 1 0 0
BITMAP
00
ENDCHAR
STARTCHAR uni000D
ENCODING 13
SWIDTH 1000 0
DWIDTH 8 0
BBX 1 1 0 0
BITMAP
00
ENDCHAR
STARTCHAR uni000E
ENCODING 14
SWIDTH 1000 0
DWIDTH 8 0
BBX 1 1 0 0
BITMAP
00
ENDCHAR
STARTCHAR uni000F
ENCODING 15
SWIDTH 1000 0
DWIDTH 8 0
BBX 1 1 0 0
BITMAP
00
ENDCHAR
STARTCHAR uni0010
ENCODING 16
SWIDTH 1000 0
DWIDTH 8 0
BBX 1 1 0 0
BITMAP
00
ENDCHAR
STARTCHAR uni0011
ENCODING 17
SWIDTH 1000 0
DWIDTH 8 0
BBX 1 1 0 0
BITMAP
00
ENDCHAR
STARTCHAR uni0012
ENCODING 18
SWIDTH 1000 0
DWIDTH 8 0
BBX 1 1 0 0
BITMAP
00
ENDCHAR
STARTCHAR uni0013
ENCODING 19
SWIDTH 1000 0
DWIDTH 8 0
BBX 1 1 0 0
BITMAP
00
ENDCHAR
STARTCHAR uni0014
ENCODING 20
SWIDTH 1000 0
DWIDTH 8 0
BBX 1 1 0 0
BITMAP
00
ENDCHAR
STARTCHAR uni0015
ENCODING 21
SWIDTH 1000 0
DWIDTH 8 0
BBX 1 1 0 0
BITMAP
00
ENDCHAR
STARTCHAR uni0016
ENCODING 22
SWIDTH 1000 0
DWIDTH 8 0
BBX 1 1 0 0
BITMAP
00
ENDCHAR
STARTCHAR uni0017
ENCODING 23
SWIDTH 1000 0
DWIDTH 8 0
BBX 1 1 0 0
BITMAP
00
ENDCHAR
STARTCHAR uni0018
ENCODING 24
SWIDTH 1000 0
DWIDTH 8 0
BBX 1 1 0 0
BITMAP
00
ENDCHAR
STARTCHAR uni0019
ENCODING 25
SWIDTH 1000 0
DWIDTH 8 0
BBX 1 1 0 0
BITMAP
00
ENDCHAR
STARTCHAR uni001A
ENCODING 26
SWIDTH 1000 0
DWIDTH 8 0
BBX 1 1 0 0
BITMAP
00
ENDCHAR
STARTCHAR uni001B
ENCODING 27
SWIDTH 1000 0
DWIDTH 8 0
BBX 1 1 0 0
BITMAP
00
ENDCHAR
STARTCHAR uni001C
ENCODING 28
SWIDTH 1000 0
DWIDTH 8 0
BBX 1 1 0 0
BITMAP
00
ENDCHAR
STARTCHAR uni001D
ENCODING 29
SWIDTH 1000 0
DWIDTH 8 0
BBX 1 1 0 0
BITMAP
00
ENDCHAR
STARTCHAR uni001E
ENCODING 30
SWIDTH 1000 0
DWIDTH 8 0
BBX 1 1 0 0
BITMAP
00
ENDCHAR
STARTCHAR uni001F
ENCODING 31
SWIDTH 1000 0
DWIDTH 8 0
BBX 1 1 0 0
BITMAP
00
ENDCHAR
STARTCHAR space
ENCODING 32
SWIDTH 500 0
DWIDTH 4 0
BBX 1 1 0 0
BITMAP
00
ENDCHAR
STARTCHAR exclam
ENCODING 33
SWIDTH 500 0
DWIDTH 4 0
BBX 2 7 1 0
BITMAP
C0
C0
C0
C0
C0
00
C0
ENDCHAR
STARTCHAR quotedbl
ENCODING 34
SWIDTH 1000 0
DWIDTH 8 0
BBX 6 3 1 3
BITMAP
6C
6C
D8
ENDCHAR
STARTCHAR numbersign
ENCODING 35
SWIDTH 1125 0
DWIDTH 9 0
BBX 7 6 1 0
BITMAP
6C
FE
6C
6C
FE
6C
ENDCHAR
STARTCHAR dollar
ENCODING 36
SWIDTH 1125 0
DWIDTH 9 0
BBX 7 7 1 -1
BITMAP
7C
D6
D0
7C
16
D6
7C
ENDCHAR
STARTCHAR percent
ENCODING 37
SWIDTH 1250 0
DWIDTH 10 0
BBX 8 8 1 -1
BITMAP
46
AC
EC
58
1A
35
37
62
ENDCHAR
STARTCHAR ampersand
ENCODING 38
SWIDTH 1125 0
DWIDTH 9 0
BBX 7 7 1 0
BITMAP
70
D8
D8
70
DE
CC
7E
ENDCHAR
STARTCHAR quotesingle
ENCODING 39
SWIDTH 625 0
DWIDTH 5 0
BBX 3 3 1 3
BITMAP
60
60
C0
ENDCHAR
STARTCHAR parenleft
ENCODING 40
SWIDTH 625 0
DWIDTH 5 0
BBX 3 7 1 0
BITMAP
60
C0
C0
C0
C0
C0
60
ENDCHAR
STARTCHAR parenright
ENCODING 41
SWIDTH 625 0
DWIDTH 5 0
BBX 3 7 1 0
BITMAP
C0
60
60
60
60
60
C0
ENDCHAR
STARTCHAR asterisk
ENCODING 42
SWIDTH 1000 0
DWIDTH 8 0
BBX 6 5 1 1
BITMAP
30
FC
78
FC
30
ENDCHAR
STARTCHAR plus
ENCODING 43
SWIDTH 1000 0
DWIDTH 8 0
BBX 6 5 1 1
BITMAP
30
30
FC
30
30
ENDCHAR
STARTCHAR comma
ENCODING 44
SWIDTH 625 0
DWIDTH 5 0
BBX 3 3 1 -1
BITMAP
60
60
C0
ENDCHAR
STARTCHAR hyphen
ENCODING 45
SWIDTH 875 0
DWIDTH 7 0
BBX 5 1 1 2
BITMAP
F8
ENDCHAR
STARTCHAR period
ENCODING 46
SWIDTH 500 0
DWIDTH 4 0
BBX 2 2 1 0
BITMAP
C0
C0
ENDCHAR
STARTCHAR slash
ENCODING 47
SWIDTH 875 0
DWIDTH 7 0
BBX 5 8 1 -1
BITMAP
18
18
30
30
60
60
C0
C0
ENDCHAR
STARTCHAR zero
ENCODING 48
SWIDTH 1000 0
DWIDTH 8 0
BBX 6 7 1 0
BITMAP
78
CC
EC
FC
DC
CC
78
ENDCHAR
STARTCHAR one
ENCODING 49
SWIDTH 1000 0
DWIDTH 8 0
BBX 6 7 1 0
BITMAP
30
F0
30
30
30
30
FC
ENDCHAR
STARTCHAR two
ENCODING 50
SWIDTH 1000 0
DWIDTH 8 0
BBX 6 7 1 0
BITMAP
78
CC
0C
18
30
60
FC
ENDCHAR
STARTCHAR three
ENCODING 51
SWIDTH 1000 0
DWIDTH 8 0
BBX 6 7 1 0
BITMAP
F8
0C
0C
78
0C
0C
F8
ENDCHAR
STARTCHAR four
ENCODING 52
SWIDTH 1000 0
DWIDTH 8 0
BBX 6 7 1 0
BITMAP
18
38
78
D8
FC
18
18
ENDCHAR
STARTCHAR five
ENCODING 53
SWIDTH 1000 0
DWIDTH 8 0
BBX 6 7 1 0
BITMAP
FC
C0
F8
0C
0C
CC
78
ENDCHAR
STARTCHAR six
ENCODING 54
SWIDTH 1000 0
DWIDTH 8 0
BBX 6 7 1 0
BITMAP
78
CC
C0
F8
CC
CC
78
ENDCHAR
STARTCHAR seven
ENCODING 55
SWIDTH 1000 0
DWIDTH 8 0
BBX 6 7 1 0
BITMAP
FC
CC
0C
18
30
60
60
ENDCHAR
STARTCHAR eight
ENCODING 56
SWIDTH 1000 0
DWIDTH 8 0
BBX 6 7 1 0
BITMAP
78
CC
CC
78
CC
CC
78
ENDCHAR
STARTCHAR nine
ENCODING 57
SWIDTH 1000 0
DWIDTH 8 0
BBX 6 7 1 0
BITMAP
78
CC
CC
7C
0C
18
70
ENDCHAR
STARTCHAR colon
ENCODING 58
SWIDTH 500 0
DWIDTH 4 0
BBX 2 4 1 1
BITMAP
C0
00
00
C0
ENDCHAR
STARTCHAR semicolon
ENCODING 59
SWIDTH 625 0
DWIDTH 5 0
BBX 3 5 1 -1
BITMAP
60
00
60
60
C0
ENDCHAR
STARTCHAR less
ENCODING 60
SWIDTH 750 0
DWIDTH 6 0
BBX 4 5 1 1
BITMAP
30
60
C0
60
30
ENDCHAR
STARTCHAR equal
ENCODING 61
SWIDTH 1125 0
DWIDTH 9 0
BBX 7 3 1 2
BITMAP
FE
00
FE
ENDCHAR
STARTCHAR greater
ENCODING 62
SWIDTH 750 0
DWIDTH 6 0
BBX 4 5 1 1
BITMAP
C0
60
30
60
C0
ENDCHAR
STARTCHAR question
ENCODING 63
SWIDTH 1000 0
DWIDTH 8 0
BBX 6 7 1 0
BITMAP
78
CC
0C
38
60
00
30
ENDCHAR
STARTCHAR at
ENCODING 64
SWIDTH 1250 0
DWIDTH 10 0
BBX 8 7 1 0
BITMAP
7C
C6
FE
DE
FC
C3
7E
ENDCHAR
STARTCHAR A
ENCODING 65
SWIDTH 1000 0
DWIDTH 8 0
BBX 6 7 1 0
BITMAP
78
CC
CC
CC
FC
CC
CC
ENDCHAR
STARTCHAR B
ENCODING 66
SWIDTH 1000 0
DWIDTH 8 0
BBX 6 7 1 0
BITMAP
F8
CC
CC
F8
CC
CC
F8
ENDCHAR
STARTCHAR C
ENCODING 67
SWIDTH 1000 0
DWIDTH 8 0
BBX 6 7 1 0
BITMAP
78
CC
C0
C0
C0
CC
78
ENDCHAR
STARTCHAR D
ENCODING 68
SWIDTH 1125 0
DWIDTH 9 0
BBX 7 7 1 0
BITMAP
FC
66
66
66
66
66
7C
ENDCHAR
STARTCHAR E
ENCODING 69
SWIDTH 1000 0
DWIDTH 8 0
BBX 6 7 1 0
BITMAP
FC
C0
C0
F8
C0
C0
FC
ENDCHAR
STARTCHAR F
ENCODING 70
SWIDTH 1000 0
DWIDTH 8 0
BBX 6 7 1 0
BITMAP
FC
C0
C0
F8
C0
C0
C0
ENDCHAR
STARTCHAR G
ENCODING 71
SWIDTH 1000 0
DWIDTH 8 0
BBX 6 7 1 0
BITMAP
7C
C0
C0
DC
CC
CC
7C
ENDCHAR
STARTCHAR H
ENCODING 72
SWIDTH 1000 0
DWIDTH 8 0
BBX 6 7 1 0
BITMAP
CC
CC
CC
FC
CC
CC
CC
ENDCHAR
STARTCHAR I
ENCODING 73
SWIDTH 750 0
DWIDTH 6 0
BBX 4 7 1 0
BITMAP
F0
60
60
60
60
60
F0
ENDCHAR
STARTCHAR J
ENCODING 74
SWIDTH 875 0
DWIDTH 7 0
BBX 5 7 1 0
BITMAP
F8
30
30
30
30
30
E0
ENDCHAR
STARTCHAR K
ENCODING 75
SWIDTH 1000 0
DWIDTH 8 0
BBX 6 7 1 0
BITMAP
CC
D8
F0
F0
D8
D8
CC
ENDCHAR
STARTCHAR L
ENCODING 76
SWIDTH 875 0
DWIDTH 7 0
BBX 5 7 1 0
BITMAP
C0
C0
C0
C0
C0
C0
F8
ENDCHAR
STARTCHAR M
ENCODING 77
SWIDTH 1125 0
DWIDTH 9 0
BBX 7 7 1 0
BITMAP
C6
C6
EE
FE
C6
C6
C6
ENDCHAR
STARTCHAR N
ENCODING 78
SWIDTH 1000 0
DWIDTH 8 0
BBX 6 7 1 0
BITMAP
CC
EC
FC
DC
CC
CC
CC
ENDCHAR
STARTCHAR O
ENCODING 79
SWIDTH 1000 0
DWIDTH 8 0
BBX 6 7 1 0
BITMAP
78
CC
CC
CC
CC
CC
78
ENDCHAR
STARTCHAR P
ENCODING 80
SWIDTH 1000 0
DWIDTH 8 0
BBX 6 7 1 0
BITMAP
F8
CC
CC
F8
C0
C0
C0
ENDCHAR
STARTCHAR Q
ENCODING 81
SWIDTH 1000 0
DWIDTH 8 0
BBX 6 7 1 0
BITMAP
78
CC
CC
CC
EC
D8
7C
ENDCHAR
STARTCHAR R
ENCODING 82
SWIDTH 1000 0
DWIDTH 8 0
BBX 6 7 1 0
BITMAP
F8
CC
CC
F8
D8
CC
CC
ENDCHAR
STARTCHAR S
ENCODING 83
SWIDTH 1000 0
DWIDTH 8 0
BBX 6 7 1 0
BITMAP
78
CC
C0
78
0C
CC
78
ENDCHAR
STARTCHAR T
ENCODING 84
SWIDTH 1000 0
DWIDTH 8 0
BBX 6 7 1 0
BITMAP
FC
30
30
30
30
30
30
ENDCHAR
STARTCHAR U
ENCODING 85
SWIDTH 1000 0
DWIDTH 8 0
BBX 6 7 1 0
BITMAP
CC
CC
CC
CC
CC
CC
78
ENDCHAR
STARTCHAR V
ENCODING 86
SWIDTH 1000 0
DWIDTH 8 0
BBX 6 7 1 0
BITMAP
CC
CC
CC
CC
78
78
30
ENDCHAR
STARTCHAR W
ENCODING 87
SWIDTH 1250 0
DWIDTH 10 0
BBX 8 7 1 0
BITMAP
C3
C3
DB
DB
DB
FF
66
ENDCHAR
STARTCHAR X
ENCODING 88
SWIDTH 1000 0
DWIDTH 8 0
BBX 6 7 1 0
BITMAP
CC
CC
78
30
78
CC
CC
ENDCHAR
STARTCHAR Y
ENCODING 89
SWIDTH 1000 0
DWIDTH 8 0
BBX 6 7 1 0
BITMAP
CC
CC
CC
78
30
30
30
ENDCHAR
STARTCHAR Z
ENCODING 90
SWIDTH 1000 0
DWIDTH 8 0
BBX 6 7 1 0
BITMAP
FC
0C
18
30
60
C0
FC
ENDCHAR
STARTCHAR bracketleft
ENCODING 91
SWIDTH 625 0
DWIDTH 5 0
BBX 3 7 1 0
BITMAP
E0
C0
C0
C0
C0
C0
E0
ENDCHAR
STARTCHAR backslash
ENCODING 92
SWIDTH 875 0
DWIDTH 7 0
BBX 5 8 1 -1
BITMAP
C0
C0
60
60
30
30
18
18
ENDCHAR
STARTCHAR bracketright
ENCODING 93
SWIDTH 625 0
DWIDTH 5 0
BBX 3 7 1 0
BITMAP
E0
60
60
60
60
60
E0
ENDCHAR
STARTCHAR asciicircum
ENCODING 94
SWIDTH 875 0
DWIDTH 7 0
BBX 5 2 1 4
BITMAP
70
D8
ENDCHAR
STARTCHAR underscore
ENCODING 95
SWIDTH 1125 0
DWIDTH 9 0
BBX 7 1 1 -1
BITMAP
FE
ENDCHAR
STARTCHAR grave
ENCODING 96
SWIDTH 625 0
DWIDTH 5 0
BBX 3 3 1 3
BITMAP
C0
60
60
ENDCHAR
STARTCHAR a
ENCODING 97
SWIDTH 1000 0
DWIDTH 8 0
BBX 6 6 1 0
BITMAP
78
0C
7C
CC
CC
7C
ENDCHAR
STARTCHAR b
ENCODING 98
SWIDTH 1000 0
DWIDTH 8 0
BBX 6 7 1 0
BITMAP
C0
C0
F8
CC
CC
CC
F8
ENDCHAR
STARTCHAR c
ENCODING 99
SWIDTH 1000 0
DWIDTH 8 0
BBX 6 6 1 0
BITMAP
78
CC
C0
C0
C0
7C
ENDCHAR
STARTCHAR d
ENCODING 100
SWIDTH 1000 0
DWIDTH 8 0
BBX 6 7 1 0
BITMAP
0C
0C
7C
CC
CC
CC
7C
ENDCHAR
STARTCHAR e
ENCODING 101
SWIDTH 1000 0
DWIDTH 8 0
BBX 6 6 1 0
BITMAP
78
CC
FC
C0
C0
7C
ENDCHAR
STARTCHAR f
ENCODING 102
SWIDTH 1000 0
DWIDTH 8 0
BBX 6 7 1 0
BITMAP
3C
60
60
F8
60
60
60
ENDCHAR
STARTCHAR g
ENCODING 103
SWIDTH 1000 0
DWIDTH 8 0
BBX 6 7 1 -1
BITMAP
7C
CC
CC
CC
7C
0C
78
ENDCHAR
STARTCHAR h
ENCODING 104
SWIDTH 1000 0
DWIDTH 8 0
BBX 6 7 1 0
BITMAP
C0
C0
F8
EC
CC
CC
CC
ENDCHAR
STARTCHAR i
ENCODING 105
SWIDTH 750 0
DWIDTH 6 0
BBX 4 7 1 0
BITMAP
60
00
E0
60
60
60
F0
ENDCHAR
STARTCHAR j
ENCODING 106
SWIDTH 750 0
DWIDTH 6 0
BBX 4 7 1 -1
BITMAP
F0
60
60
60
60
60
C0
ENDCHAR
STARTCHAR k
ENCODING 107
SWIDTH 1000 0
DWIDTH 8 0
BBX 6 6 1 0
BITMAP
CC
D8
F0
F0
D8
CC
ENDCHAR
STARTCHAR l
ENCODING 108
SWIDTH 750 0
DWIDTH 6 0
BBX 4 6 1 0
BITMAP
C0
C0
C0
C0
C0
70
ENDCHAR
STARTCHAR m
ENCODING 109
SWIDTH 1250 0
DWIDTH 10 0
BBX 8 6 1 0
BITMAP
7E
DB
DB
DB
DB
DB
ENDCHAR
STARTCHAR n
ENCODING 110
SWIDTH 1000 0
DWIDTH 8 0
BBX 6 6 1 0
BITMAP
38
EC
CC
CC
CC
CC
ENDCHAR
STARTCHAR o
ENCODING 111
SWIDTH 1000 0
DWIDTH 8 0
BBX 6 6 1 0
BITMAP
78
CC
CC
CC
CC
78
ENDCHAR
STARTCHAR p
ENCODING 112
SWIDTH 1000 0
DWIDTH 8 0
BBX 6 7 1 -1
BITMAP
F8
CC
CC
CC
F8
C0
C0
ENDCHAR
STARTCHAR q
ENCODING 113
SWIDTH 1000 0
DWIDTH 8 0
BBX 6 7 1 -1
BITMAP
7C
CC
CC
CC
7C
0C
0C
ENDCHAR
STARTCHAR r
ENCODING 114
SWIDTH 875 0
DWIDTH 7 0
BBX 5 6 1 0
BITMAP
78
E0
C0
C0
C0
C0
ENDCHAR
STARTCHAR s
ENCODING 115
SWIDTH 1000 0
DWIDTH 8 0
BBX 6 6 1 0
BITMAP
78
C0
78
0C
CC
78
ENDCHAR
STARTCHAR t
ENCODING 116
SWIDTH 875 0
DWIDTH 7 0
BBX 5 7 1 0
BITMAP
C0
C0
F8
C0
C0
C0
78
ENDCHAR
STARTCHAR u
ENCODING 117
SWIDTH 1000 0
DWIDTH 8 0
BBX 6 6 1 0
BITMAP
CC
CC
CC
CC
DC
7C
ENDCHAR
STARTCHAR v
ENCODING 118
SWIDTH 1000 0
DWIDTH 8 0
BBX 6 6 1 0
BITMAP
CC
CC
CC
78
78
30
ENDCHAR
STARTCHAR w
ENCODING 119
SWIDTH 1250 0
DWIDTH 10 0
BBX 8 6 1 0
BITMAP
03
DB
DB
DB
DB
7E
ENDCHAR
STARTCHAR x
ENCODING 120
SWIDTH 1000 0
DWIDTH 8 0
BBX 6 6 1 0
BITMAP
CC
78
30
30
78
CC
ENDCHAR
STARTCHAR y
ENCODING 121
SWIDTH 875 0
DWIDTH 7 0
BBX 5 6 1 0
BITMAP
D8
D8
D8
70
30
E0
ENDCHAR
STARTCHAR z
ENCODING 122
SWIDTH 875 0
DWIDTH 7 0
BBX 5 6 1 0
BITMAP
F8
18
30
60
C0
F8
ENDCHAR
STARTCHAR braceleft
ENCODING 123
SWIDTH 875 0
DWIDTH 7 0
BBX 5 8 1 -1
BITMAP
30
68
40
C0
C0
40
68
30
ENDCHAR
STARTCHAR bar
ENCODING 124
SWIDTH 500 0
DWIDTH 4 0
BBX 2 8 1 -1
BITMAP
C0
C0
C0
C0
C0
C0
C0
C0
ENDCHAR
STARTCHAR braceright
ENCODING 125
SWIDTH 875 0
DWIDTH 7 0
BBX 5 8 1 -1
BITMAP
60
B0
10
18
18
10
B0
60
ENDCHAR
STARTCHAR asciitilde
ENCODING 126
SWIDTH 1125 0
DWIDTH 9 0
BBX 7 2 1 2
BITMAP
76
DC
ENDCHAR
STARTCHAR uni007F
ENCODING 127
SWIDTH 1000 0
DWIDTH 8 0
BBX 1 1 0 0
BITMAP
00
ENDCHAR
STARTCHAR uni00A0
ENCODING 160
SWIDTH 1000 0
DWIDTH 8 0
BBX 1 1 0 0
BITMAP
00
ENDCHAR
STARTCHAR exclamdown
ENCODING 161
SWIDTH 500 0
DWIDTH 4 0
BBX 2 7 1 0
BITMAP
C0
00
C0
C0
C0
C0
C0
ENDCHAR
STARTCHAR cent
ENCODING 162
SWIDTH 1125 0
DWIDTH 9 0
BBX 7 7 1 -1
BITMAP
10
7C
D6
D0
D6
7C
10
ENDCHAR
STARTCHAR sterling
ENCODING 163
SWIDTH 1125 0
DWIDTH 9 0
BBX 7 7 1 -1
BITMAP
3C
66
60
F8
60
66
FC
ENDCHAR
STARTCHAR currency
ENCODING 164
SWIDTH 1125 0
DWIDTH 9 0
BBX 7 6 1 0
BITMAP
C6
38
6C
6C
38
C6
ENDCHAR
STARTCHAR yen
ENCODING 165
SWIDTH 1000 0
DWIDTH 8 0
BBX 6 7 1 -1
BITMAP
CC
78
30
FC
30
FC
30
ENDCHAR
STARTCHAR brokenbar
ENCODING 166
SWIDTH 500 0
DWIDTH 4 0
BBX 2 8 1 -1
BITMAP
C0
C0
C0
00
C0
C0
C0
C0
ENDCHAR
STARTCHAR section
ENCODING 167
SWIDTH 875 0
DWIDTH 7 0
BBX 5 8 1 -1
BITMAP
70
C0
70
D8
D8
70
18
70
ENDCHAR
STARTCHAR dieresis
ENCODING 168
SWIDTH 875 0
DWIDTH 7 0
BBX 5 1 1 5
BITMAP
D8
ENDCHAR
STARTCHAR copyright
ENCODING 169
SWIDTH 1250 0
DWIDTH 10 0
BBX 8 8 1 -1
BITMAP
3C
66
DB
E3
E7
DB
66
3C
ENDCHAR
STARTCHAR ordfeminine
ENCODING 170
SWIDTH 1000 0
DWIDTH 8 0
BBX 6 5 1 2
BITMAP
30
78
48
00
FC
ENDCHAR
STARTCHAR guillemotleft
ENCODING 171
SWIDTH 1000 0
DWIDTH 8 0
BBX 6 4 1 1
BITMAP
6C
D8
D8
6C
ENDCHAR
STARTCHAR logicalnot
ENCODING 172
SWIDTH 1125 0
DWIDTH 9 0
BBX 7 3 1 1
BITMAP
FE
06
06
ENDCHAR
STARTCHAR uni00AD
ENCODING 173
SWIDTH 500 0
DWIDTH 4 0
BBX 4 1 0 3
BITMAP
F0
ENDCHAR
STARTCHAR registered
ENCODING 174
SWIDTH 1250 0
DWIDTH 10 0
BBX 8 8 1 -1
BITMAP
7E
C3
DB
D7
DB
D7
C3
7E
ENDCHAR
STARTCHAR macron
ENCODING 175
SWIDTH 1125 0
DWIDTH 9 0
BBX 7 1 1 6
BITMAP
FE
ENDCHAR
STARTCHAR degree
ENCODING 176
SWIDTH 750 0
DWIDTH 6 0
BBX 4 4 1 2
BITMAP
60
90
F0
60
ENDCHAR
STARTCHAR plusminus
ENCODING 177
SWIDTH 1000 0
DWIDTH 8 0
BBX 6 6 1 0
BITMAP
30
30
FC
30
30
FC
ENDCHAR
STARTCHAR uni00B2
ENCODING 178
SWIDTH 750 0
DWIDTH 6 0
BBX 4 5 1 2
BITMAP
E0
30
60
C0
F0
ENDCHAR
STARTCHAR uni00B3
ENCODING 179
SWIDTH 750 0
DWIDTH 6 0
BBX 4 5 1 2
BITMAP
E0
30
60
30
E0
ENDCHAR
STARTCHAR acute
ENCODING 180
SWIDTH 625 0
DWIDTH 5 0
BBX 3 2 1 5
BITMAP
60
C0
ENDCHAR
STARTCHAR mu
ENCODING 181
SWIDTH 1125 0
DWIDTH 9 0
BBX 7 7 1 -1
BITMAP
CC
CC
CC
DC
FC
C6
C0
ENDCHAR
STARTCHAR paragraph
ENCODING 182
SWIDTH 1000 0
DWIDTH 8 0
BBX 6 8 1 -1
BITMAP
7C
F4
F4
74
34
34
34
34
ENDCHAR
STARTCHAR periodcentered
ENCODING 183
SWIDTH 625 0
DWIDTH 5 0
BBX 3 2 1 2
BITMAP
E0
E0
ENDCHAR
STARTCHAR cedilla
ENCODING 184
SWIDTH 625 0
DWIDTH 5 0
BBX 3 2 1 -1
BITMAP
C0
60
ENDCHAR
STARTCHAR uni00B9
ENCODING 185
SWIDTH 750 0
DWIDTH 6 0
BBX 4 5 1 2
BITMAP
60
E0
60
60
F0
ENDCHAR
STARTCHAR ordmasculine
ENCODING 186
SWIDTH 1125 0
DWIDTH 9 0
BBX 7 5 1 2
BITMAP
7C
6C
7C
00
FE
ENDCHAR
STARTCHAR guillemotright
ENCODING 187
SWIDTH 1000 0
DWIDTH 8 0
BBX 6 4 1 1
BITMAP
D8
6C
6C
D8
ENDCHAR
STARTCHAR onequarter
ENCODING 188
SWIDTH 1250 0
DWIDTH 10 0
BBX 8 8 1 -1
BITMAP
E4
6C
78
FB
37
3B
6F
43
ENDCHAR
STARTCHAR onehalf
ENCODING 189
SWIDTH 1250 0
DWIDTH 10 0
BBX 8 8 1 -1
BITMAP
E2
66
6C
FE
1B
36
6C
CF
ENDCHAR
STARTCHAR threequarters
ENCODING 190
SWIDTH 1250 0
DWIDTH 10 0
BBX 8 8 1 -1
BITMAP
E2
36
6C
3B
F7
3B
6F
C3
ENDCHAR
STARTCHAR questiondown
ENCODING 191
SWIDTH 1000 0
DWIDTH 8 0
BBX 6 7 1 -1
BITMAP
30
00
18
70
C0
CC
78
ENDCHAR
STARTCHAR Agrave
ENCODING 192
SWIDTH 1125 0
DWIDTH 9 0
BBX 7 7 1 0
BITMAP
C0
60
3C
66
66
7E
66
ENDCHAR
STARTCHAR Aacute
ENCODING 193
SWIDTH 1125 0
DWIDTH 9 0
BBX 7 7 1 0
BITMAP
06
0C
78
CC
CC
FC
CC
ENDCHAR
STARTCHAR Acircumflex
ENCODING 194
SWIDTH 1250 0
DWIDTH 10 0
BBX 8 7 1 0
BITMAP
7E
C3
3C
66
66
7E
66
ENDCHAR
STARTCHAR Atilde
ENCODING 195
SWIDTH 1250 0
DWIDTH 10 0
BBX 8 7 1 0
BITMAP
7B
CE
3C
66
66
7E
66
ENDCHAR
STARTCHAR Adieresis
ENCODING 196
SWIDTH 1000 0
DWIDTH 8 0
BBX 6 7 1 0
BITMAP
CC
00
78
CC
CC
FC
CC
ENDCHAR
STARTCHAR Aring
ENCODING 197
SWIDTH 1000 0
DWIDTH 8 0
BBX 6 7 1 0
BITMAP
30
48
78
CC
CC
FC
CC
ENDCHAR
STARTCHAR AE
ENCODING 198
SWIDTH 1250 0
DWIDTH 10 0
BBX 8 7 1 0
BITMAP
1F
3C
6C
7F
CC
CC
CF
ENDCHAR
STARTCHAR Ccedilla
ENCODING 199
SWIDTH 1000 0
DWIDTH 8 0
BBX 6 8 1 -1
BITMAP
78
CC
C0
C0
C0
CC
78
0C
ENDCHAR
STARTCHAR Egrave
ENCODING 200
SWIDTH 1125 0
DWIDTH 9 0
BBX 7 7 1 0
BITMAP
C0
60
7E
60
7C
60
7E
ENDCHAR
STARTCHAR Eacute
ENCODING 201
SWIDTH 1250 0
DWIDTH 10 0
BBX 8 7 1 0
BITMAP
03
06
FC
C0
F8
C0
FC
ENDCHAR
STARTCHAR Ecircumflex
ENCODING 202
SWIDTH 1250 0
DWIDTH 10 0
BBX 8 7 1 0
BITMAP
7E
C3
3C
30
3C
30
3C
ENDCHAR
STARTCHAR Edieresis
ENCODING 203
SWIDTH 1000 0
DWIDTH 8 0
BBX 6 7 1 0
BITMAP
CC
00
FC
C0
F8
C0
FC
ENDCHAR
STARTCHAR Igrave
ENCODING 204
SWIDTH 750 0
DWIDTH 6 0
BBX 4 7 1 0
BITMAP
C0
60
00
60
60
60
F0
ENDCHAR
STARTCHAR Iacute
ENCODING 205
SWIDTH 750 0
DWIDTH 6 0
BBX 4 7 1 0
BITMAP
30
60
00
60
60
60
F0
ENDCHAR
STARTCHAR Icircumflex
ENCODING 206
SWIDTH 1000 0
DWIDTH 8 0
BBX 6 7 1 0
BITMAP
78
CC
30
30
30
30
78
ENDCHAR
STARTCHAR Idieresis
ENCODING 207
SWIDTH 1000 0
DWIDTH 8 0
BBX 6 7 1 0
BITMAP
CC
00
30
30
30
30
78
ENDCHAR
STARTCHAR Eth
ENCODING 208
SWIDTH 1125 0
DWIDTH 9 0
BBX 7 7 1 0
BITMAP
FC
66
66
66
F6
66
7C
ENDCHAR
STARTCHAR Ntilde
ENCODING 209
SWIDTH 1250 0
DWIDTH 10 0
BBX 8 7 1 0
BITMAP
7B
CE
30
3A
3E
36
36
ENDCHAR
STARTCHAR Ograve
ENCODING 210
SWIDTH 1125 0
DWIDTH 9 0
BBX 7 7 1 0
BITMAP
C0
60
3C
66
66
66
3C
ENDCHAR
STARTCHAR Oacute
ENCODING 211
SWIDTH 1125 0
DWIDTH 9 0
BBX 7 7 1 0
BITMAP
06
0C
78
CC
CC
CC
78
ENDCHAR
STARTCHAR Ocircumflex
ENCODING 212
SWIDTH 1250 0
DWIDTH 10 0
BBX 8 7 1 0
BITMAP
7E
C3
3C
66
66
66
3C
ENDCHAR
STARTCHAR Otilde
ENCODING 213
SWIDTH 1250 0
DWIDTH 10 0
BBX 8 7 1 0
BITMAP
7B
CE
3C
66
66
66
3C
ENDCHAR
STARTCHAR Odieresis
ENCODING 214
SWIDTH 1000 0
DWIDTH 8 0
BBX 6 7 1 0
BITMAP
CC
00
78
CC
CC
CC
78
ENDCHAR
STARTCHAR multiply
ENCODING 215
SWIDTH 1000 0
DWIDTH 8 0
BBX 6 5 1 1
BITMAP
CC
78
30
78
CC
ENDCHAR
STARTCHAR Oslash
ENCODING 216
SWIDTH 1125 0
DWIDTH 9 0
BBX 7 7 1 0
BITMAP
76
CC
DE
F6
F6
66
DC
ENDCHAR
STARTCHAR Ugrave
ENCODING 217
SWIDTH 1125 0
DWIDTH 9 0
BBX 7 7 1 0
BITMAP
C0
60
66
66
66
66
3C
ENDCHAR
STARTCHAR Uacute
ENCODING 218
SWIDTH 1125 0
DWIDTH 9 0
BBX 7 7 1 0
BITMAP
06
0C
CC
CC
CC
CC
78
ENDCHAR
STARTCHAR Ucircumflex
ENCODING 219
SWIDTH 1250 0
DWIDTH 10 0
BBX 8 7 1 0
BITMAP
7E
C3
00
66
66
66
3C
ENDCHAR
STARTCHAR Udieresis
ENCODING 220
SWIDTH 1000 0
DWIDTH 8 0
BBX 6 7 1 0
BITMAP
CC
00
CC
CC
CC
CC
78
ENDCHAR
STARTCHAR Yacute
ENCODING 221
SWIDTH 1000 0
DWIDTH 8 0
BBX 6 7 1 0
BITMAP
0C
D8
C0
CC
78
30
30
ENDCHAR
STARTCHAR Thorn
ENCODING 222
SWIDTH 875 0
DWIDTH 7 0
BBX 5 6 1 0
BITMAP
C0
F0
D8
D8
F0
C0
ENDCHAR
STARTCHAR germandbls
ENCODING 223
SWIDTH 1000 0
DWIDTH 8 0
BBX 6 8 1 -1
BITMAP
70
D8
D8
FC
CC
CC
F8
C0
ENDCHAR
STARTCHAR agrave
ENCODING 224
SWIDTH 1125 0
DWIDTH 9 0
BBX 7 7 1 0
BITMAP
C0
60
3C
66
66
7E
66
ENDCHAR
STARTCHAR aacute
ENCODING 225
SWIDTH 1125 0
DWIDTH 9 0
BBX 7 7 1 0
BITMAP
06
0C
78
CC
CC
FC
CC
ENDCHAR
STARTCHAR acircumflex
ENCODING 226
SWIDTH 1250 0
DWIDTH 10 0
BBX 8 7 1 0
BITMAP
7E
C3
3C
66
66
7E
66
ENDCHAR
STARTCHAR atilde
ENCODING 227
SWIDTH 1250 0
DWIDTH 10 0
BBX 8 7 1 0
BITMAP
7B
CE
3C
66
66
7E
66
ENDCHAR
STARTCHAR adieresis
ENCODING 228
SWIDTH 1000 0
DWIDTH 8 0
BBX 6 7 1 0
BITMAP
CC
00
78
CC
CC
FC
CC
ENDCHAR
STARTCHAR aring
ENCODING 229
SWIDTH 1000 0
DWIDTH 8 0
BBX 6 7 1 0
BITMAP
30
48
78
CC
CC
FC
CC
ENDCHAR
STARTCHAR ae
ENCODING 230
SWIDTH 1250 0
DWIDTH 10 0
BBX 8 6 1 0
BITMAP
1F
3C
6C
7F
CC
CF
ENDCHAR
STARTCHAR ccedilla
ENCODING 231
SWIDTH 1000 0
DWIDTH 8 0
BBX 6 7 1 -1
BITMAP
78
CC
C0
C0
CC
78
0C
ENDCHAR
STARTCHAR egrave
ENCODING 232
SWIDTH 1125 0
DWIDTH 9 0
BBX 7 7 1 0
BITMAP
C0
60
7E
60
7C
60
7E
ENDCHAR
STARTCHAR eacute
ENCODING 233
SWIDTH 1250 0
DWIDTH 10 0
BBX 8 7 1 0
BITMAP
03
06
FC
C0
F8
C0
FC
ENDCHAR
STARTCHAR ecircumflex
ENCODING 234
SWIDTH 1250 0
DWIDTH 10 0
BBX 8 7 1 0
BITMAP
7E
C3
3C
30
3C
30
3C
ENDCHAR
STARTCHAR edieresis
ENCODING 235
SWIDTH 1000 0
DWIDTH 8 0
BBX 6 7 1 0
BITMAP
CC
00
FC
C0
F8
C0
FC
ENDCHAR
STARTCHAR igrave
ENCODING 236
SWIDTH 750 0
DWIDTH 6 0
BBX 4 7 1 0
BITMAP
C0
60
00
60
60
60
F0
ENDCHAR
STARTCHAR iacute
ENCODING 237
SWIDTH 750 0
DWIDTH 6 0
BBX 4 7 1 0
BITMAP
30
60
00
60
60
60
F0
ENDCHAR
STARTCHAR icircumflex
ENCODING 238
SWIDTH 1000 0
DWIDTH 8 0
BBX 6 7 1 0
BITMAP
78
CC
30
30
30
30
78
ENDCHAR
STARTCHAR idieresis
ENCODING 239
SWIDTH 1000 0
DWIDTH 8 0
BBX 6 7 1 0
BITMAP
CC
00
30
30
30
30
78
ENDCHAR
STARTCHAR eth
ENCODING 240
SWIDTH 1125 0
DWIDTH 9 0
BBX 7 7 1 0
BITMAP
0C
0C
7E
CC
CC
CC
78
ENDCHAR
STARTCHAR ntilde
ENCODING 241
SWIDTH 1250 0
DWIDTH 10 0
BBX 8 7 1 0
BITMAP
7B
CE
30
3A
3E
36
36
ENDCHAR
STARTCHAR ograve
ENCODING 242
SWIDTH 1125 0
DWIDTH 9 0
BBX 7 7 1 0
BITMAP
C0
60
3C
66
66
66
3C
ENDCHAR
STARTCHAR oacute
ENCODING 243
SWIDTH 1125 0
DWIDTH 9 0
BBX 7 7 1 0
BITMAP
06
0C
78
CC
CC
CC
78
ENDCHAR
STARTCHAR ocircumflex
ENCODING 244
SWIDTH 1250 0
DWIDTH 10 0
BBX 8 7 1 0
BITMAP
7E
C3
3C
66
66
66
3C
ENDCHAR
STARTCHAR otilde
ENCODING 245
SWIDTH 1250 0
DWIDTH 10 0
BBX 8 7 1 0
BITMAP
7B
CE
3C
66
66
66
3C
ENDCHAR
STARTCHAR odieresis
ENCODING 246
SWIDTH 1000 0
DWIDTH 8 0
BBX 6 7 1 0
BITMAP
CC
00
78
CC
CC
CC
78
ENDCHAR
STARTCHAR divide
ENCODING 247
SWIDTH 1000 0
DWIDTH 8 0
BBX 6 5 1 1
BITMAP
30
00
FC
00
30
ENDCHAR
STARTCHAR oslash
ENCODING 248
SWIDTH 1125 0
DWIDTH 9 0
BBX 7 6 1 0
BITMAP
76
CC
DE
F6
66
DC
ENDCHAR
STARTCHAR ugrave
ENCODING 249
SWIDTH 1125 0
DWIDTH 9 0
BBX 7 7 1 0
BITMAP
C0
60
66
66
66
66
3C
ENDCHAR
STARTCHAR uacute
ENCODING 250
SWIDTH 1125 0
DWIDTH 9 0
BBX 7 7 1 0
BITMAP
06
0C
CC
CC
CC
CC
78
ENDCHAR
STARTCHAR ucircumflex
ENCODING 251
SWIDTH 1250 0
DWIDTH 10 0
BBX 8 7 1 0
BITMAP
7E
C3
00
66
66
66
3C
ENDCHAR
STARTCHAR udieresis
ENCODING 252
SWIDTH 1000 0
DWIDTH 8 0
BBX 6 7 1 0
BITMAP
CC
00
CC
CC
CC
CC
78
ENDCHAR
STARTCHAR yacute
ENCODING 253
SWIDTH 1000 0
DWIDTH 8 0
BBX 6 7 1 0
BITMAP
18
30
00
CC
78
30
30
ENDCHAR
STARTCHAR thorn
ENCODING 254
SWIDTH 875 0
DWIDTH 7 0
BBX 5 6 1 0
BITMAP
C0
F0
D8
D8
F0
C0
ENDCHAR
STARTCHAR ydieresis
ENCODING 255
SWIDTH 1000 0
DWIDTH 8 0
BBX 6 7 1 0
BITMAP
CC
00
CC
CC
78
30
30
ENDCHAR
STARTCHAR IJ
ENCODING 306
SWIDTH 1250 0
DWIDTH 10 0
BBX 8 7 1 0
BITMAP
F7
63
63
63
63
63
F6
ENDCHAR
STARTCHAR ij
ENCODING 307
SWIDTH 1250 0
DWIDTH 10 0
BBX 8 8 1 -1
BITMAP
60
0F
E6
66
66
66
F6
0C
ENDCHAR
STARTCHAR Ldot
ENCODING 319
SWIDTH 1000 0
DWIDTH 8 0
BBX 6 7 1 0
BITMAP
C0
C0
CC
C0
C0
C0
F8
ENDCHAR
STARTCHAR ldot
ENCODING 320
SWIDTH 1000 0
DWIDTH 8 0
BBX 6 6 1 0
BITMAP
C0
CC
C0
C0
C0
70
ENDCHAR
STARTCHAR napostrophe
ENCODING 329
SWIDTH 1250 0
DWIDTH 10 0
BBX 8 7 1 0
BITMAP
60
CE
3B
33
33
33
33
ENDCHAR
STARTCHAR OE
ENCODING 338
SWIDTH 1250 0
DWIDTH 10 0
BBX 8 7 1 0
BITMAP
7F
CC
CC
CF
CC
DC
7F
ENDCHAR
STARTCHAR oe
ENCODING 339
SWIDTH 1250 0
DWIDTH 10 0
BBX 8 6 1 0
BITMAP
7F
CC
CC
CF
DC
7F
ENDCHAR
STARTCHAR Scaron
ENCODING 352
SWIDTH 1000 0
DWIDTH 8 0
BBX 6 7 1 0
BITMAP
CC
78
C0
78
0C
CC
78
ENDCHAR
STARTCHAR scaron
ENCODING 353
SWIDTH 1000 0
DWIDTH 8 0
BBX 6 7 1 0
BITMAP
CC
78
C0
78
0C
CC
78
ENDCHAR
STARTCHAR Ydieresis
ENCODING 376
SWIDTH 1000 0
DWIDTH 8 0
BBX 6 7 1 0
BITMAP
CC
00
CC
78
30
30
30
ENDCHAR
STARTCHAR Zcaron
ENCODING 381
SWIDTH 1000 0
DWIDTH 8 0
BBX 6 7 1 0
BITMAP
CC
7C
18
30
60
C0
FC
ENDCHAR
STARTCHAR zcaron
ENCODING 382
SWIDTH 1125 0
DWIDTH 9 0
BBX 7 7 1 0
BITMAP
C6
7C
0C
18
30
60
7C
ENDCHAR
STARTCHAR florin
ENCODING 402
SWIDTH 750 0
DWIDTH 6 0
BBX 4 6 1 0
BITMAP
30
60
F0
60
60
C0
ENDCHAR
STARTCHAR circumflex
ENCODING 710
SWIDTH 1000 0
DWIDTH 8 0
BBX 6 3 1 4
BITMAP
30
78
CC
ENDCHAR
STARTCHAR tilde
ENCODING 732
SWIDTH 1000 0
DWIDTH 8 0
BBX 6 2 1 4
BITMAP
6C
D8
ENDCHAR
STARTCHAR endash
ENCODING 8211
SWIDTH 750 0
DWIDTH 6 0
BBX 4 1 1 4
BITMAP
F0
ENDCHAR
STARTCHAR emdash
ENCODING 8212
SWIDTH 1000 0
DWIDTH 8 0
BBX 6 1 1 3
BITMAP
FC
ENDCHAR
STARTCHAR quoteleft
ENCODING 8216
SWIDTH 625 0
DWIDTH 5 0
BBX 3 3 1 3
BITMAP
C0
C0
60
ENDCHAR
STARTCHAR quoteright
ENCODING 8217
SWIDTH 625 0
DWIDTH 5 0
BBX 3 3 1 3
BITMAP
C0
60
60
ENDCHAR
STARTCHAR quotesinglbase
ENCODING 8218
SWIDTH 625 0
DWIDTH 5 0
BBX 3 3 1 -1
BITMAP
60
60
C0
ENDCHAR
STARTCHAR quotedblleft
ENCODING 8220
SWIDTH 1000 0
DWIDTH 8 0
BBX 6 3 1 3
BITMAP
D8
D8
6C
ENDCHAR
STARTCHAR quotedblright
ENCODING 8221
SWIDTH 1000 0
DWIDTH 8 0
BBX 6 3 1 3
BITMAP
D8
6C
6C
ENDCHAR
STARTCHAR quotedblbase
ENCODING 8222
SWIDTH 1000 0
DWIDTH 8 0
BBX 6 3 1 -1
BITMAP
6C
6C
D8
ENDCHAR
STARTCHAR dagger
ENCODING 8224
SWIDTH 1000 0
DWIDTH 8 0
BBX 6 6 1 0
BITMAP
30
78
B4
30
30
30
ENDCHAR
STARTCHAR daggerdbl
ENCODING 8225
SWIDTH 1000 0
DWIDTH 8 0
BBX 6 8 1 -1
BITMAP
30
78
B4
30
30
B4
78
30
ENDCHAR
STARTCHAR bullet
ENCODING 8226
SWIDTH 875 0
DWIDTH 7 0
BBX 5 4 1 1
BITMAP
70
F8
F8
70
ENDCHAR
STARTCHAR ellipsis
ENCODING 8230
SWIDTH 1250 0
DWIDTH 10 0
BBX 8 1 1 0
BITMAP
DB
ENDCHAR
STARTCHAR perthousand
ENCODING 8240
SWIDTH 1250 0
DWIDTH 10 0
BBX 8 8 1 -1
BITMAP
22
56
74
28
2A
55
DF
8A
ENDCHAR
STARTCHAR guilsinglleft
ENCODING 8249
SWIDTH 625 0
DWIDTH 5 0
BBX 3 4 1 1
BITMAP
60
C0
C0
60
ENDCHAR
STARTCHAR guilsinglright
ENCODING 8250
SWIDTH 625 0
DWIDTH 5 0
BBX 3 4 1 1
BITMAP
C0
60
60
C0
ENDCHAR
STARTCHAR Euro
ENCODING 8364
SWIDTH 1250 0
DWIDTH 10 0
BBX 8 7 1 -1
BITMAP
3E
63
FC
60
F8
63
3E
ENDCHAR
STARTCHAR trademark
ENCODING 8482
SWIDTH 1250 0
DWIDTH 10 0
BBX 8 4 1 3
BITMAP
F3
6F
6B
6B
ENDCHAR
STARTCHAR .notdef
ENCODING -1
SWIDTH 360 0
DWIDTH 3 0
BBX 3 6 0 0
BITMAP
E0
A0
A0
A0
A0
E0
ENDCHAR
STARTCHAR NameMe.129
ENCODING -1
SWIDTH 1000 0
DWIDTH 8 0
BBX 1 1 0 0
BITMAP
00
ENDCHAR
STARTCHAR NameMe.141
ENCODING -1
SWIDTH 1000 0
DWIDTH 8 0
BBX 1 1 0 0
BITMAP
00
ENDCHAR
STARTCHAR NameMe.143
ENCODING -1
SWIDTH 1000 0
DWIDTH 8 0
BBX 1 1 0 0
BITMAP
00
ENDCHAR
STARTCHAR NameMe.144
ENCODING -1
SWIDTH 1000 0
DWIDTH 8 0
BBX 1 1 0 0
BITMAP
00
ENDCHAR
STARTCHAR NameMe.157
ENCODING -1
SWIDTH 1000 0
DWIDTH 8 0
BBX 1 1 0 0
BITMAP
00
ENDCHAR
ENDFONT
